<?xml version="1.0" encoding="UTF-8" standalone="no"?>
<svg
   xmlns:dc="http://purl.org/dc/elements/1.1/"
   xmlns:cc="http://creativecommons.org/ns#"
   xmlns:rdf="http://www.w3.org/1999/02/22-rdf-syntax-ns#"
   xmlns:svg="http://www.w3.org/2000/svg"
   xmlns="http://www.w3.org/2000/svg"
   id="svg1435"
   version="1.1"
   viewBox="0 0 3.7044301 2.46962"
   height="2.46962mm"
   width="3.7044301mm">
  <defs
     id="defs1429" />
  <metadata
     id="metadata1432">
    <rdf:RDF>
      <cc:Work
         rdf:about="">
        <dc:format>image/svg+xml</dc:format>
        <dc:type
           rdf:resource="http://purl.org/dc/dcmitype/StillImage" />
        <dc:title></dc:title>
      </cc:Work>
    </rdf:RDF>
  </metadata>
  <g
     transform="translate(-138.75493,-55.461619)"
     id="layer1">
    <path
       id="path1758"
       d="m 142.26938,55.461619 h -3.32448 c -0.10449,0 -0.18997,0.08548 -0.18997,0.189967 v 2.089678 c 0,0.104476 0.0855,0.189975 0.18997,0.189975 h 3.32448 c 0.10448,0 0.18998,-0.08548 0.18998,-0.189975 v -2.089678 c -1e-5,-0.104483 -0.0855,-0.189967 -0.18998,-0.189967 z m -0.0713,0.142468 -1.48167,1.111341 c -0.0266,0.02027 -0.0675,0.03296 -0.10929,0.03277 -0.0417,1.88e-4 -0.0826,-0.0125 -0.10928,-0.03277 l -1.48167,-1.111341 z m -0.79146,1.18467 0.80737,0.997351 c 8.3e-4,9.97e-4 0.002,0.0018 0.003,0.0027 h -3.21905 c 8.5e-4,-9.48e-4 0.002,-0.0017 0.003,-0.0027 l 0.80738,-0.997351 c 0.0247,-0.03058 0.02,-0.07542 -0.0106,-0.100215 -0.0306,-0.02474 -0.0754,-0.02005 -0.10017,0.01054 l -0.79949,0.987612 v -1.993558 l 1.51501,1.136259 c 0.057,0.04241 0.12623,0.06108 0.19471,0.06127 0.0684,-1.45e-4 0.13773,-0.01881 0.19472,-0.06127 l 1.51501,-1.136259 v 1.993544 l -0.79947,-0.987598 c -0.0248,-0.03058 -0.0696,-0.03529 -0.10017,-0.01054 -0.0306,0.02474 -0.0353,0.06963 -0.0106,0.100215 z"
       style="fill:#666666;stroke-width:0.264583" />
  </g>
</svg>
